<svg xmlns="http://www.w3.org/2000/svg" xmlns:xlink="http://www.w3.org/1999/xlink" width="77.726" height="74.552" viewBox="0 0 77.726 74.552">
  <defs>
    <filter id="arrow-forward" x="0" y="0" width="77.726" height="74.552" filterUnits="userSpaceOnUse">
      <feOffset dy="3" input="SourceAlpha"/>
      <feGaussianBlur stdDeviation="3" result="blur"/>
      <feFlood flood-opacity="0.161"/>
      <feComposite operator="in" in2="blur"/>
      <feComposite in="SourceGraphic"/>
    </filter>
  </defs>
  <g transform="matrix(1, 0, 0, 1, 0, 0)" filter="url(#arrow-forward)">
    <path id="arrow-forward-2" data-name="arrow-forward" d="M38.063,57.4,59.927,36.184a4.822,4.822,0,0,0,1.425-3.546v-.063a4.822,4.822,0,0,0-1.425-3.546L38.063,7.814a4.681,4.681,0,0,0-6.839,0,5.236,5.236,0,0,0,0,7.156l13.14,12.57H10.485a5.071,5.071,0,0,0-.016,10.132H44.348l-13.14,12.57a5.236,5.236,0,0,0,0,7.156A4.7,4.7,0,0,0,38.063,57.4Z" transform="translate(5.38 1.67)" fill="#fff" stroke="#dc0000" stroke-width="4"/>
  </g>
</svg>
